<mxfile host="Electron" modified="2024-04-28T09:37:26.818Z" agent="Mozilla/5.0 (Windows NT 10.0; Win64; x64) AppleWebKit/537.36 (KHTML, like Gecko) draw.io/24.2.5 Chrome/120.0.6099.109 Electron/28.1.0 Safari/537.36" etag="qqc0Qogrn2KGXN-h86Mp" version="24.2.5" type="device">
  <diagram name="Page-1" id="2YBvvXClWsGukQMizWep">
    <mxGraphModel dx="989" dy="577" grid="1" gridSize="10" guides="1" tooltips="1" connect="1" arrows="1" fold="1" page="1" pageScale="1" pageWidth="850" pageHeight="1100" math="0" shadow="0">
      <root>
        <mxCell id="0" />
        <mxCell id="1" parent="0" />
        <mxCell id="GnX_WBeSgIfLqOpjFVnE-1" value="Owner" style="shape=umlLifeline;perimeter=lifelinePerimeter;whiteSpace=wrap;html=1;container=1;dropTarget=0;collapsible=0;recursiveResize=0;outlineConnect=0;portConstraint=eastwest;newEdgeStyle={&quot;curved&quot;:0,&quot;rounded&quot;:0};participant=umlActor;horizontal=1;verticalAlign=middle;align=center;spacingTop=0;spacing=2;spacingBottom=60;fillColor=#f8cecc;gradientColor=#ea6b66;strokeColor=#b85450;" vertex="1" parent="1">
          <mxGeometry x="92" y="127" width="19.83" height="663" as="geometry" />
        </mxCell>
        <mxCell id="GnX_WBeSgIfLqOpjFVnE-2" value="Owner App" style="shape=umlLifeline;perimeter=lifelinePerimeter;whiteSpace=wrap;html=1;container=1;dropTarget=0;collapsible=0;recursiveResize=0;outlineConnect=0;portConstraint=eastwest;newEdgeStyle={&quot;curved&quot;:0,&quot;rounded&quot;:0};fillColor=#f8cecc;gradientColor=#ea6b66;strokeColor=#b85450;" vertex="1" parent="1">
          <mxGeometry x="251" y="127" width="100" height="663" as="geometry" />
        </mxCell>
        <mxCell id="GnX_WBeSgIfLqOpjFVnE-3" value="" style="html=1;points=[[0,0,0,0,5],[0,1,0,0,-5],[1,0,0,0,5],[1,1,0,0,-5]];perimeter=orthogonalPerimeter;outlineConnect=0;targetShapes=umlLifeline;portConstraint=eastwest;newEdgeStyle={&quot;curved&quot;:0,&quot;rounded&quot;:0};fillColor=#f8cecc;gradientColor=#ea6b66;strokeColor=#b85450;" vertex="1" parent="GnX_WBeSgIfLqOpjFVnE-2">
          <mxGeometry x="45" y="56" width="10" height="607" as="geometry" />
        </mxCell>
        <mxCell id="GnX_WBeSgIfLqOpjFVnE-4" value="Database" style="shape=umlLifeline;perimeter=lifelinePerimeter;whiteSpace=wrap;html=1;container=1;dropTarget=0;collapsible=0;recursiveResize=0;outlineConnect=0;portConstraint=eastwest;newEdgeStyle={&quot;curved&quot;:0,&quot;rounded&quot;:0};fontFamily=Helvetica;strokeColor=#b85450;align=center;verticalAlign=middle;fontSize=12;fontColor=default;fillColor=#f8cecc;gradientColor=#ea6b66;" vertex="1" parent="1">
          <mxGeometry x="475" y="125" width="100" height="665" as="geometry" />
        </mxCell>
        <mxCell id="GnX_WBeSgIfLqOpjFVnE-5" value="" style="endArrow=block;endFill=1;html=1;edgeStyle=orthogonalEdgeStyle;align=left;verticalAlign=top;rounded=0;fontFamily=comfortaa;" edge="1" parent="1">
          <mxGeometry x="-1" relative="1" as="geometry">
            <mxPoint x="120" y="206" as="sourcePoint" />
            <mxPoint x="280" y="206" as="targetPoint" />
          </mxGeometry>
        </mxCell>
        <mxCell id="GnX_WBeSgIfLqOpjFVnE-6" value="Επιλογή συγκεκριμένου&lt;span style=&quot;white-space: pre;&quot;&gt;&#x9;&lt;/span&gt;" style="edgeLabel;html=1;align=center;verticalAlign=middle;resizable=0;points=[];fontFamily=comfortaa;" connectable="0" vertex="1" parent="GnX_WBeSgIfLqOpjFVnE-5">
          <mxGeometry x="0.0435" y="1" relative="1" as="geometry">
            <mxPoint x="-13" y="-7" as="offset" />
          </mxGeometry>
        </mxCell>
        <mxCell id="GnX_WBeSgIfLqOpjFVnE-7" value="establishment" style="edgeLabel;html=1;align=center;verticalAlign=middle;resizable=0;points=[];fontFamily=comfortaa;" connectable="0" vertex="1" parent="GnX_WBeSgIfLqOpjFVnE-5">
          <mxGeometry x="0.0608" y="-3" relative="1" as="geometry">
            <mxPoint x="-25" y="4" as="offset" />
          </mxGeometry>
        </mxCell>
        <mxCell id="GnX_WBeSgIfLqOpjFVnE-8" value="" style="endArrow=block;endFill=1;html=1;edgeStyle=orthogonalEdgeStyle;align=left;verticalAlign=top;rounded=0;fontFamily=comfortaa;" edge="1" parent="1">
          <mxGeometry x="-1" relative="1" as="geometry">
            <mxPoint x="334" y="224" as="sourcePoint" />
            <mxPoint x="494" y="224" as="targetPoint" />
          </mxGeometry>
        </mxCell>
        <mxCell id="GnX_WBeSgIfLqOpjFVnE-9" value="Αναζήτηση στη βάση δεδομένων" style="edgeLabel;html=1;align=center;verticalAlign=middle;resizable=0;points=[];fontFamily=comfortaa;labelBackgroundColor=none;" connectable="0" vertex="1" parent="GnX_WBeSgIfLqOpjFVnE-8">
          <mxGeometry x="-0.1875" y="2" relative="1" as="geometry">
            <mxPoint x="11" y="-8" as="offset" />
          </mxGeometry>
        </mxCell>
        <mxCell id="GnX_WBeSgIfLqOpjFVnE-10" value="για πληροφορίες επιχείρησης" style="edgeLabel;html=1;align=center;verticalAlign=middle;resizable=0;points=[];fontFamily=comfortaa;labelBackgroundColor=none;" connectable="0" vertex="1" parent="GnX_WBeSgIfLqOpjFVnE-8">
          <mxGeometry x="0.0366" relative="1" as="geometry">
            <mxPoint x="-17" y="6" as="offset" />
          </mxGeometry>
        </mxCell>
        <mxCell id="GnX_WBeSgIfLqOpjFVnE-11" value="" style="endArrow=block;endFill=1;html=1;edgeStyle=orthogonalEdgeStyle;align=left;verticalAlign=top;rounded=0;fontFamily=comfortaa;" edge="1" parent="1">
          <mxGeometry x="-1" relative="1" as="geometry">
            <mxPoint x="121" y="352" as="sourcePoint" />
            <mxPoint x="281" y="352" as="targetPoint" />
          </mxGeometry>
        </mxCell>
        <mxCell id="GnX_WBeSgIfLqOpjFVnE-12" value="Επιλογή πλήρες περιεχομένου" style="edgeLabel;html=1;align=center;verticalAlign=middle;resizable=0;points=[];fontFamily=comfortaa;" connectable="0" vertex="1" parent="GnX_WBeSgIfLqOpjFVnE-11">
          <mxGeometry x="0.1293" y="1" relative="1" as="geometry">
            <mxPoint x="-8" y="-8" as="offset" />
          </mxGeometry>
        </mxCell>
        <mxCell id="GnX_WBeSgIfLqOpjFVnE-13" value="κάποιας πληροφορίας" style="edgeLabel;html=1;align=center;verticalAlign=middle;resizable=0;points=[];fontFamily=comfortaa;" connectable="0" vertex="1" parent="GnX_WBeSgIfLqOpjFVnE-11">
          <mxGeometry x="0.1724" y="-2" relative="1" as="geometry">
            <mxPoint x="-15" y="5" as="offset" />
          </mxGeometry>
        </mxCell>
        <mxCell id="GnX_WBeSgIfLqOpjFVnE-17" value="" style="endArrow=block;endFill=1;html=1;edgeStyle=orthogonalEdgeStyle;align=left;verticalAlign=top;rounded=0;fontFamily=comfortaa;" edge="1" parent="1">
          <mxGeometry x="-1" relative="1" as="geometry">
            <mxPoint x="327" y="378" as="sourcePoint" />
            <mxPoint x="487" y="378" as="targetPoint" />
          </mxGeometry>
        </mxCell>
        <mxCell id="GnX_WBeSgIfLqOpjFVnE-18" value="Αίτημα για φόρτωση της" style="edgeLabel;html=1;align=center;verticalAlign=middle;resizable=0;points=[];fontFamily=comfortaa;" connectable="0" vertex="1" parent="GnX_WBeSgIfLqOpjFVnE-17">
          <mxGeometry x="0.3" y="-1" relative="1" as="geometry">
            <mxPoint x="-27" y="-9" as="offset" />
          </mxGeometry>
        </mxCell>
        <mxCell id="GnX_WBeSgIfLqOpjFVnE-19" value="συγκεκριμένης πληροφρορίας" style="edgeLabel;html=1;align=center;verticalAlign=middle;resizable=0;points=[];fontFamily=comfortaa;" connectable="0" vertex="1" parent="GnX_WBeSgIfLqOpjFVnE-17">
          <mxGeometry x="0.231" y="-3" relative="1" as="geometry">
            <mxPoint x="-19" y="5" as="offset" />
          </mxGeometry>
        </mxCell>
        <mxCell id="GnX_WBeSgIfLqOpjFVnE-20" value="" style="endArrow=none;endFill=0;html=1;edgeStyle=orthogonalEdgeStyle;align=left;verticalAlign=top;rounded=0;startArrow=classic;startFill=1;dashed=1;fontFamily=comfortaa;" edge="1" parent="1">
          <mxGeometry x="-1" relative="1" as="geometry">
            <mxPoint x="318" y="276" as="sourcePoint" />
            <mxPoint x="478" y="276" as="targetPoint" />
          </mxGeometry>
        </mxCell>
        <mxCell id="GnX_WBeSgIfLqOpjFVnE-21" value="Επιστροφή σχετικών αποτελεσμάτων" style="edgeLabel;html=1;align=center;verticalAlign=middle;resizable=0;points=[];fontFamily=comfortaa;" connectable="0" vertex="1" parent="GnX_WBeSgIfLqOpjFVnE-20">
          <mxGeometry x="-0.3237" y="2" relative="1" as="geometry">
            <mxPoint x="41" y="-14" as="offset" />
          </mxGeometry>
        </mxCell>
        <mxCell id="GnX_WBeSgIfLqOpjFVnE-22" value="" style="endArrow=none;endFill=0;html=1;edgeStyle=orthogonalEdgeStyle;align=left;verticalAlign=top;rounded=0;startArrow=classic;startFill=1;fontFamily=comfortaa;" edge="1" parent="1">
          <mxGeometry x="-1" relative="1" as="geometry">
            <mxPoint x="120" y="460" as="sourcePoint" />
            <mxPoint x="280" y="460" as="targetPoint" />
          </mxGeometry>
        </mxCell>
        <mxCell id="GnX_WBeSgIfLqOpjFVnE-23" value="&lt;font&gt;Εμφάνιση της πληροφορίας&lt;/font&gt;" style="edgeLabel;html=1;align=center;verticalAlign=middle;resizable=0;points=[];fontFamily=comfortaa;labelBackgroundColor=none;" connectable="0" vertex="1" parent="GnX_WBeSgIfLqOpjFVnE-22">
          <mxGeometry x="-0.1325" relative="1" as="geometry">
            <mxPoint x="16" y="-10" as="offset" />
          </mxGeometry>
        </mxCell>
        <mxCell id="GnX_WBeSgIfLqOpjFVnE-25" value="" style="endArrow=none;endFill=0;html=1;edgeStyle=orthogonalEdgeStyle;align=left;verticalAlign=top;rounded=0;startArrow=classic;startFill=1;fontFamily=comfortaa;dashed=1;" edge="1" parent="1">
          <mxGeometry x="-1" relative="1" as="geometry">
            <mxPoint x="332" y="432" as="sourcePoint" />
            <mxPoint x="492" y="432" as="targetPoint" />
          </mxGeometry>
        </mxCell>
        <mxCell id="GnX_WBeSgIfLqOpjFVnE-26" value="Επιστροφή της συγκεκριμένης" style="edgeLabel;html=1;align=center;verticalAlign=middle;resizable=0;points=[];fontFamily=comfortaa;" connectable="0" vertex="1" parent="GnX_WBeSgIfLqOpjFVnE-25">
          <mxGeometry x="-0.1246" relative="1" as="geometry">
            <mxPoint x="8" y="-12" as="offset" />
          </mxGeometry>
        </mxCell>
        <mxCell id="GnX_WBeSgIfLqOpjFVnE-27" value="πληροφορίας" style="edgeLabel;html=1;align=center;verticalAlign=middle;resizable=0;points=[];fontFamily=comfortaa;" connectable="0" vertex="1" parent="GnX_WBeSgIfLqOpjFVnE-25">
          <mxGeometry x="0.4185" y="-2" relative="1" as="geometry">
            <mxPoint x="-21" y="5" as="offset" />
          </mxGeometry>
        </mxCell>
        <mxCell id="GnX_WBeSgIfLqOpjFVnE-28" value="" style="endArrow=none;endFill=0;html=1;edgeStyle=orthogonalEdgeStyle;align=left;verticalAlign=top;rounded=0;startArrow=classic;startFill=1;fontFamily=comfortaa;" edge="1" parent="1">
          <mxGeometry x="-1" relative="1" as="geometry">
            <mxPoint x="121" y="301" as="sourcePoint" />
            <mxPoint x="281" y="301" as="targetPoint" />
          </mxGeometry>
        </mxCell>
        <mxCell id="GnX_WBeSgIfLqOpjFVnE-30" value="στον owner" style="edgeLabel;html=1;align=center;verticalAlign=middle;resizable=0;points=[];fontFamily=comfortaa;" connectable="0" vertex="1" parent="GnX_WBeSgIfLqOpjFVnE-28">
          <mxGeometry x="0.0086" y="2" relative="1" as="geometry">
            <mxPoint x="-1" y="9" as="offset" />
          </mxGeometry>
        </mxCell>
        <mxCell id="GnX_WBeSgIfLqOpjFVnE-29" value="Εμφάνιση σχετικών αποτελεσμάτων" style="edgeLabel;html=1;align=center;verticalAlign=middle;resizable=0;points=[];fontFamily=comfortaa;labelBackgroundColor=none;" connectable="0" vertex="1" parent="GnX_WBeSgIfLqOpjFVnE-28">
          <mxGeometry x="0.2586" y="1" relative="1" as="geometry">
            <mxPoint x="-12" y="-10" as="offset" />
          </mxGeometry>
        </mxCell>
        <mxCell id="GnX_WBeSgIfLqOpjFVnE-31" value="&lt;font style=&quot;font-size: 10px;&quot;&gt;Βασική ροή&lt;/font&gt;" style="shape=umlFrame;whiteSpace=wrap;html=1;pointerEvents=0;fillColor=#f8cecc;gradientColor=#ea6b66;strokeColor=#b85450;" vertex="1" parent="1">
          <mxGeometry x="24" y="183" width="574" height="317" as="geometry" />
        </mxCell>
        <mxCell id="GnX_WBeSgIfLqOpjFVnE-32" value="&lt;font style=&quot;font-size: 9px;&quot;&gt;Εναλλακτική ροή 1&lt;/font&gt;" style="shape=umlFrame;whiteSpace=wrap;html=1;pointerEvents=0;fontFamily=Helvetica;fontSize=12;strokeColor=#b85450;align=center;verticalAlign=middle;fontColor=default;fillColor=#f8cecc;gradientColor=#ea6b66;" vertex="1" parent="1">
          <mxGeometry x="24" y="500" width="574" height="290" as="geometry" />
        </mxCell>
        <mxCell id="GnX_WBeSgIfLqOpjFVnE-70" value="" style="html=1;points=[[0,0,0,0,5],[0,1,0,0,-5],[1,0,0,0,5],[1,1,0,0,-5]];perimeter=orthogonalPerimeter;outlineConnect=0;targetShapes=umlLifeline;portConstraint=eastwest;newEdgeStyle={&quot;curved&quot;:0,&quot;rounded&quot;:0};fillColor=#f8cecc;gradientColor=#ea6b66;strokeColor=#b85450;" vertex="1" parent="1">
          <mxGeometry x="520" y="183" width="10" height="117" as="geometry" />
        </mxCell>
        <mxCell id="GnX_WBeSgIfLqOpjFVnE-71" value="" style="html=1;points=[[0,0,0,0,5],[0,1,0,0,-5],[1,0,0,0,5],[1,1,0,0,-5]];perimeter=orthogonalPerimeter;outlineConnect=0;targetShapes=umlLifeline;portConstraint=eastwest;newEdgeStyle={&quot;curved&quot;:0,&quot;rounded&quot;:0};fillColor=#f8cecc;gradientColor=#ea6b66;strokeColor=#b85450;" vertex="1" parent="1">
          <mxGeometry x="520" y="360" width="10" height="117" as="geometry" />
        </mxCell>
        <mxCell id="GnX_WBeSgIfLqOpjFVnE-72" value="" style="html=1;points=[[0,0,0,0,5],[0,1,0,0,-5],[1,0,0,0,5],[1,1,0,0,-5]];perimeter=orthogonalPerimeter;outlineConnect=0;targetShapes=umlLifeline;portConstraint=eastwest;newEdgeStyle={&quot;curved&quot;:0,&quot;rounded&quot;:0};fillColor=#f8cecc;gradientColor=#ea6b66;strokeColor=#b85450;" vertex="1" parent="1">
          <mxGeometry x="520" y="550" width="10" height="120" as="geometry" />
        </mxCell>
        <mxCell id="GnX_WBeSgIfLqOpjFVnE-69" value="" style="html=1;points=[[0,0,0,0,5],[0,1,0,0,-5],[1,0,0,0,5],[1,1,0,0,-5]];perimeter=orthogonalPerimeter;outlineConnect=0;targetShapes=umlLifeline;portConstraint=eastwest;newEdgeStyle={&quot;curved&quot;:0,&quot;rounded&quot;:0};fillColor=#f8cecc;gradientColor=#ea6b66;strokeColor=#b85450;" vertex="1" parent="1">
          <mxGeometry x="96.92" y="183" width="10" height="607" as="geometry" />
        </mxCell>
        <mxCell id="GnX_WBeSgIfLqOpjFVnE-75" value="" style="endArrow=none;endFill=0;html=1;edgeStyle=orthogonalEdgeStyle;align=left;verticalAlign=top;rounded=0;startArrow=classic;startFill=1;fontFamily=comfortaa;" edge="1" parent="1">
          <mxGeometry x="-1" relative="1" as="geometry">
            <mxPoint x="120" y="490" as="sourcePoint" />
            <mxPoint x="280" y="490" as="targetPoint" />
          </mxGeometry>
        </mxCell>
        <mxCell id="GnX_WBeSgIfLqOpjFVnE-76" value="Εμφάνιση μηνύματος επιτυχίας" style="edgeLabel;html=1;align=center;verticalAlign=middle;resizable=0;points=[];fontFamily=comfortaa;labelBackgroundColor=none;" connectable="0" vertex="1" parent="GnX_WBeSgIfLqOpjFVnE-75">
          <mxGeometry x="-0.1325" relative="1" as="geometry">
            <mxPoint x="16" y="-10" as="offset" />
          </mxGeometry>
        </mxCell>
        <mxCell id="GnX_WBeSgIfLqOpjFVnE-77" value="" style="endArrow=none;endFill=0;html=1;edgeStyle=orthogonalEdgeStyle;align=left;verticalAlign=top;rounded=0;startArrow=classic;startFill=1;fontFamily=comfortaa;" edge="1" parent="1">
          <mxGeometry x="-1" relative="1" as="geometry">
            <mxPoint x="120" y="540" as="sourcePoint" />
            <mxPoint x="280" y="540" as="targetPoint" />
          </mxGeometry>
        </mxCell>
        <mxCell id="GnX_WBeSgIfLqOpjFVnE-78" value="&lt;font&gt;Εμφάνιση της πληροφορίας&lt;/font&gt;" style="edgeLabel;html=1;align=center;verticalAlign=middle;resizable=0;points=[];fontFamily=comfortaa;labelBackgroundColor=none;" connectable="0" vertex="1" parent="GnX_WBeSgIfLqOpjFVnE-77">
          <mxGeometry x="-0.1325" relative="1" as="geometry">
            <mxPoint x="11" y="-10" as="offset" />
          </mxGeometry>
        </mxCell>
        <mxCell id="GnX_WBeSgIfLqOpjFVnE-79" value="" style="endArrow=block;endFill=1;html=1;edgeStyle=orthogonalEdgeStyle;align=left;verticalAlign=top;rounded=0;fontFamily=comfortaa;" edge="1" parent="1">
          <mxGeometry x="-1" relative="1" as="geometry">
            <mxPoint x="120" y="570" as="sourcePoint" />
            <mxPoint x="280" y="570" as="targetPoint" />
          </mxGeometry>
        </mxCell>
        <mxCell id="GnX_WBeSgIfLqOpjFVnE-80" value="τροποποίηση πληροφορίας" style="edgeLabel;html=1;align=center;verticalAlign=middle;resizable=0;points=[];fontFamily=comfortaa;" connectable="0" vertex="1" parent="GnX_WBeSgIfLqOpjFVnE-79">
          <mxGeometry x="0.0435" y="1" relative="1" as="geometry">
            <mxPoint x="-3" y="-10" as="offset" />
          </mxGeometry>
        </mxCell>
        <mxCell id="GnX_WBeSgIfLqOpjFVnE-82" value="" style="endArrow=block;endFill=1;html=1;edgeStyle=orthogonalEdgeStyle;align=left;verticalAlign=top;rounded=0;fontFamily=comfortaa;" edge="1" parent="1">
          <mxGeometry x="-1" relative="1" as="geometry">
            <mxPoint x="120" y="570" as="sourcePoint" />
            <mxPoint x="280" y="570" as="targetPoint" />
          </mxGeometry>
        </mxCell>
        <mxCell id="GnX_WBeSgIfLqOpjFVnE-83" value="τροποποίηση πληροφορίας" style="edgeLabel;html=1;align=center;verticalAlign=middle;resizable=0;points=[];fontFamily=comfortaa;" connectable="0" vertex="1" parent="GnX_WBeSgIfLqOpjFVnE-82">
          <mxGeometry x="0.0435" y="1" relative="1" as="geometry">
            <mxPoint x="-3" y="-10" as="offset" />
          </mxGeometry>
        </mxCell>
        <mxCell id="GnX_WBeSgIfLqOpjFVnE-85" value="" style="endArrow=block;endFill=1;html=1;edgeStyle=orthogonalEdgeStyle;align=left;verticalAlign=top;rounded=0;fontFamily=comfortaa;" edge="1" parent="1">
          <mxGeometry x="-1" relative="1" as="geometry">
            <mxPoint x="340" y="597.21" as="sourcePoint" />
            <mxPoint x="500" y="597.21" as="targetPoint" />
          </mxGeometry>
        </mxCell>
        <mxCell id="GnX_WBeSgIfLqOpjFVnE-86" value="αποθήκευση αλλαγών" style="edgeLabel;html=1;align=center;verticalAlign=middle;resizable=0;points=[];fontFamily=comfortaa;" connectable="0" vertex="1" parent="GnX_WBeSgIfLqOpjFVnE-85">
          <mxGeometry x="0.0435" y="1" relative="1" as="geometry">
            <mxPoint x="-3" y="-10" as="offset" />
          </mxGeometry>
        </mxCell>
        <mxCell id="GnX_WBeSgIfLqOpjFVnE-87" value="" style="endArrow=none;endFill=0;html=1;edgeStyle=orthogonalEdgeStyle;align=left;verticalAlign=top;rounded=0;startArrow=classic;startFill=1;fontFamily=comfortaa;dashed=1;" edge="1" parent="1">
          <mxGeometry x="-1" relative="1" as="geometry">
            <mxPoint x="345" y="630" as="sourcePoint" />
            <mxPoint x="505" y="630" as="targetPoint" />
          </mxGeometry>
        </mxCell>
        <mxCell id="GnX_WBeSgIfLqOpjFVnE-88" value="επιστροφή αλλαγών" style="edgeLabel;html=1;align=center;verticalAlign=middle;resizable=0;points=[];fontFamily=comfortaa;" connectable="0" vertex="1" parent="GnX_WBeSgIfLqOpjFVnE-87">
          <mxGeometry x="-0.1246" relative="1" as="geometry">
            <mxPoint x="8" y="-12" as="offset" />
          </mxGeometry>
        </mxCell>
        <mxCell id="GnX_WBeSgIfLqOpjFVnE-90" value="" style="endArrow=none;endFill=0;html=1;edgeStyle=orthogonalEdgeStyle;align=left;verticalAlign=top;rounded=0;startArrow=classic;startFill=1;fontFamily=comfortaa;" edge="1" parent="1">
          <mxGeometry x="-1" relative="1" as="geometry">
            <mxPoint x="120" y="667" as="sourcePoint" />
            <mxPoint x="280" y="667" as="targetPoint" />
          </mxGeometry>
        </mxCell>
        <mxCell id="GnX_WBeSgIfLqOpjFVnE-91" value="&lt;font&gt;Εμφάνιση της τροποποιημένης&lt;/font&gt;" style="edgeLabel;html=1;align=center;verticalAlign=middle;resizable=0;points=[];fontFamily=comfortaa;labelBackgroundColor=none;" connectable="0" vertex="1" parent="GnX_WBeSgIfLqOpjFVnE-90">
          <mxGeometry x="-0.1325" relative="1" as="geometry">
            <mxPoint x="16" y="-10" as="offset" />
          </mxGeometry>
        </mxCell>
        <mxCell id="GnX_WBeSgIfLqOpjFVnE-92" value="&lt;font&gt;πληροφορίας&lt;/font&gt;" style="edgeLabel;html=1;align=center;verticalAlign=middle;resizable=0;points=[];fontFamily=comfortaa;labelBackgroundColor=none;" connectable="0" vertex="1" parent="GnX_WBeSgIfLqOpjFVnE-90">
          <mxGeometry x="-0.1325" relative="1" as="geometry">
            <mxPoint x="11" y="13" as="offset" />
          </mxGeometry>
        </mxCell>
      </root>
    </mxGraphModel>
  </diagram>
</mxfile>
